# xmcd
#
# Track frame offsets:
#	150
#	15220
#	27687
#	42487
#	60180
#	74097
#	91235
#	105517
#	118677
#	129690
#	149020
#	162970
#	178390
#	196047
#	208385
#	223497
#
# Disc length: 3252 seconds
#
# Revision: 0
# Processed by: cddbd v1.4PL0 Copyright (c) Steve Scherf et al.
# Submitted via: dBpowerAMP V4.0
#
DISCID=fa0cb210
DTITLE=Pedro Fernandez - lo mucho que te quiero
DYEAR=1993
DGENRE=Country
TTITLE0=lo mucho que te quiero
TTITLE1=gema
TTITLE2=corazon
TTITLE3=los dos
TTITLE4=besos de plata
TTITLE5=enamorada
TTITLE6=luna de octubre
TTITLE7=despierta
TTITLE8=serenata huasteca
TTITLE9=tu dia feliz
TTITLE10=mi cariñito
TTITLE11=tres regalos
TTITLE12=adios
TTITLE13=la rondalla
TTITLE14=lo mucho que te quiero (español)
TTITLE15=las mañanitas
EXTD=
EXTT0=
EXTT1=
EXTT2=
EXTT3=
EXTT4=
EXTT5=
EXTT6=
EXTT7=
EXTT8=
EXTT9=
EXTT10=
EXTT11=
EXTT12=
EXTT13=
EXTT14=
EXTT15=
PLAYORDER=
